<svg xmlns="http://www.w3.org/2000/svg" viewBox="0 0 116 82" width="116" height="82"><title>Industry Experience 20 Years Icon-svg</title><style> .s0 { fill: #000000 } .s1 { fill: #e5222f } </style><path id="Layer" class="s0" d="m44 52.9v3h-1.8v-3l-2.7-5h2l1.6 3.2h0.1l1.7-3.2h1.8z"></path><path id="Layer" class="s0" d="m49.4 55.9v-8h5.6l-0.2 1.4h-3.7v1.8h3.5v1.4h-3.5v2h3.8l0.2 1.5z"></path><path id="Layer" fill-rule="evenodd" class="s0" d="m62.7 54.4h-3.2l-0.5 1.5h-1.8l2.9-8h2.2l2.9 8h-1.9zm-2.7-1.3h2.2q-0.4-1.3-1.1-3.2z"></path><path id="Layer" fill-rule="evenodd" class="s0" d="m73.5 56q-0.1 0-0.3 0-0.1 0-0.2-0.1-0.2 0-0.3-0.1-0.1 0-0.2-0.1-0.1-0.1-0.2-0.2-0.1-0.1-0.1-0.2-0.1-0.2-0.1-0.3 0-0.2 0-0.3 0-0.2 0-0.4 0-0.2 0-0.4-0.1-0.2-0.1-0.4-0.1-0.2-0.1-0.4-0.1-0.1-0.2-0.2-0.1-0.1-0.3-0.2-0.1-0.1-0.2-0.1-0.2 0-0.3 0h-1.4v3.3h-1.8v-8h3.6q0.3 0 0.6 0 0.2 0 0.5 0.1 0.2 0 0.4 0.1 0.3 0.1 0.5 0.2 0.2 0.2 0.3 0.3 0.2 0.2 0.3 0.4 0.1 0.2 0.1 0.4 0.1 0.2 0.1 0.5 0 0.1 0 0.2-0.1 0.1-0.1 0.2 0 0.1 0 0.2-0.1 0.1-0.1 0.2-0.1 0.1-0.1 0.2-0.1 0.1-0.1 0.2-0.1 0.1-0.2 0.2-0.1 0-0.1 0.1-0.1 0.1-0.2 0.1-0.1 0.1-0.2 0.1-0.1 0.1-0.2 0.1-0.1 0.1-0.2 0.1 0.2 0.1 0.3 0.1 0.1 0.1 0.2 0.2 0.1 0.1 0.2 0.2 0.1 0.1 0.2 0.2 0.1 0.2 0.2 0.4 0.1 0.2 0.1 0.3 0.1 0.2 0.1 0.4 0 0.2 0 0.4 0 1.3 0.6 1.5v0.4q-0.1 0-0.2 0-0.2 0.1-0.3 0.1-0.1 0-0.2 0-0.2 0-0.3 0zm-1.5-5.1q0.1 0 0.1-0.1 0.1-0.1 0.1-0.2 0 0 0.1-0.1 0-0.1 0-0.2v-0.1q0-0.1 0-0.2-0.1 0-0.1-0.1 0-0.1-0.1-0.2 0-0.1-0.1-0.1-0.1-0.1-0.1-0.1-0.1-0.1-0.2-0.1-0.1 0-0.2-0.1-0.1 0-0.2 0h-1.8v1.9h1.8q0.1 0 0.2 0 0.1 0 0.2-0.1 0.1 0 0.1-0.1 0.1 0 0.2-0.1z"></path><path id="Layer" class="s0" d="m81.5 50.2q0-0.1 0-0.2-0.1-0.1-0.1-0.2-0.1-0.1-0.1-0.2-0.1-0.1-0.2-0.1-0.1-0.1-0.2-0.2-0.1 0-0.3 0-0.1-0.1-0.2-0.1-0.1 0-0.3 0-0.1 0-0.2 0-0.2 0-0.3 0.1-0.1 0-0.2 0-0.2 0.1-0.3 0.1-0.1 0.1-0.2 0.2-0.1 0.1-0.1 0.3 0 0.1 0 0.3 0.1 0.1 0.2 0.2 0.1 0.1 0.1 0.1 0.1 0.1 0.2 0.1 0 0 0.1 0.1 0.1 0 0.2 0 0.3 0.1 0.9 0.3 0.2 0 0.4 0.1 0.2 0 0.3 0.1 0.2 0 0.4 0.1 0.2 0.1 0.4 0.1 0.1 0.1 0.2 0.2 0.2 0 0.3 0.1 0.1 0.1 0.2 0.2 0.2 0.1 0.3 0.2 0.1 0.2 0.1 0.3 0.1 0.2 0.2 0.3 0 0.2 0.1 0.3 0 0.2 0 0.4 0 0.3-0.1 0.5 0 0.3-0.1 0.6-0.1 0.3-0.3 0.5-0.2 0.2-0.4 0.4-0.6 0.3-1.2 0.4-0.6 0.2-1.2 0.2-0.6 0-1.2-0.2-0.6-0.1-1.2-0.4-0.2-0.2-0.4-0.4-0.2-0.2-0.3-0.4-0.1-0.3-0.2-0.6 0-0.2 0-0.5v-0.3h1.7v0.2q0 0.1 0 0.3 0 0.1 0.1 0.2 0 0.1 0.1 0.2 0.1 0.1 0.2 0.1 0.1 0.1 0.2 0.2 0.2 0.1 0.3 0.1 0.1 0 0.3 0 0.1 0.1 0.3 0 0.1 0.1 0.3 0.1 0.1-0.1 0.3-0.1 0.1 0 0.3-0.1 0.1 0 0.3-0.1 0-0.1 0.1-0.1 0.1-0.1 0.1-0.2 0.1-0.1 0.1-0.2 0-0.1 0-0.2 0 0 0-0.1 0-0.1 0-0.1-0.1-0.1-0.1-0.2 0 0-0.1-0.1-0.1 0-0.1-0.1-0.1 0-0.2-0.1 0 0-0.1 0-0.1-0.1-0.1-0.1-0.4-0.1-1-0.2-0.2-0.1-0.4-0.1-0.1-0.1-0.3-0.1-0.2-0.1-0.4-0.1-0.2-0.1-0.3-0.2-0.2 0-0.3-0.1-0.2-0.1-0.3-0.2-0.1-0.1-0.2-0.2-0.1-0.1-0.2-0.2-0.1-0.1-0.2-0.3-0.1-0.1-0.1-0.3-0.1-0.2-0.1-0.3 0-0.2 0-0.4 0-0.1 0-0.3 0-0.2 0.1-0.4 0-0.1 0.1-0.3 0.1-0.1 0.2-0.3 0.1-0.1 0.2-0.2 0.2-0.2 0.3-0.3 0.2-0.1 0.3-0.2 0.2 0 0.3-0.1 0.2-0.1 0.4-0.1 0.2-0.1 0.4-0.1 0.2 0 0.4 0 0.2-0.1 0.4-0.1 0.3 0 0.6 0.1 0.3 0 0.6 0.1 0.2 0 0.5 0.2 0.3 0.1 0.5 0.2 0.2 0.2 0.4 0.4 0.2 0.2 0.3 0.4 0.1 0.2 0.1 0.5 0.1 0.2 0.1 0.5v0.1h-1.7z"></path><path id="Layer" class="s0" d="m50 29.7h-3.6q0-0.7 0.1-1.3 0.1-0.7 0.4-1.4 0.2-0.6 0.6-1.2 0.4-0.6 0.9-1.1 0.8-0.7 1.7-1.1 1-0.5 2.1-0.6 1-0.2 2.1 0 1 0.2 2 0.7 0.3 0.2 0.6 0.4 0.3 0.2 0.6 0.5 0.3 0.3 0.5 0.6 0.3 0.3 0.5 0.6 0.2 0.4 0.3 0.7 0.2 0.4 0.3 0.7 0.1 0.4 0.1 0.8 0.1 0.3 0.1 0.7 0 0.5-0.1 1-0.1 0.5-0.2 1-0.1 0.4-0.3 0.9-0.2 0.5-0.4 0.9-0.4 0.7-0.8 1.3-0.4 0.6-0.9 1.2-0.4 0.6-0.9 1.2-0.5 0.5-1.1 1.1l-2.2 2.3h7v3.4h-13.6v-1.7l6.1-6.2q0.4-0.4 0.8-0.9 0.4-0.4 0.8-0.8 0.4-0.5 0.7-1 0.3-0.4 0.6-0.9 0.2-0.3 0.3-0.6 0.2-0.3 0.3-0.6 0.1-0.3 0.1-0.7 0.1-0.3 0.1-0.6 0-0.3-0.1-0.5 0-0.3-0.1-0.5-0.1-0.3-0.2-0.5-0.2-0.2-0.4-0.4-0.2-0.2-0.4-0.3-0.2-0.2-0.5-0.2-0.2-0.1-0.5-0.2-0.3 0-0.5 0-0.3 0-0.6 0-0.3 0.1-0.5 0.2-0.3 0.1-0.5 0.3-0.2 0.2-0.4 0.4-0.2 0.2-0.4 0.5-0.2 0.3-0.3 0.6-0.1 0.3-0.2 0.7 0 0.3 0 0.6z"></path><path id="Layer" fill-rule="evenodd" class="s0" d="m69.3 22.9q0.5 0 0.9 0.1 0.5 0 1 0.2 0.5 0.1 0.9 0.3 0.5 0.2 0.9 0.5 0.4 0.3 0.8 0.7 0.3 0.3 0.6 0.7 0.4 0.4 0.6 0.9 0.2 0.4 0.4 0.9 0.2 0.7 0.4 1.5 0.2 0.7 0.3 1.5 0.1 0.7 0.1 1.5 0.1 0.8 0.1 1.5 0 0.8-0.1 1.6 0 0.7-0.1 1.5-0.1 0.8-0.3 1.5-0.2 0.8-0.4 1.5-0.2 0.5-0.4 0.9-0.3 0.5-0.6 0.9-0.3 0.4-0.6 0.8-0.4 0.3-0.8 0.6-0.4 0.3-0.8 0.5-0.5 0.2-1 0.3-0.4 0.1-0.9 0.2-0.5 0-1 0-0.5 0-0.9 0-0.5-0.1-1-0.2-0.5-0.1-0.9-0.3-0.5-0.2-0.9-0.5-0.4-0.3-0.7-0.6-0.4-0.4-0.7-0.8-0.3-0.4-0.5-0.8-0.3-0.4-0.4-0.9-0.3-0.7-0.5-1.5-0.1-0.7-0.3-1.5-0.1-0.7-0.1-1.5 0-0.7 0-1.5 0-5.4 1.7-7.8 0.4-0.7 1-1.2 0.5-0.5 1.2-0.8 0.7-0.4 1.4-0.6 0.8-0.1 1.6-0.1zm0.1 3.6q-0.3 0-0.5 0-0.2 0-0.4 0.1-0.3 0.1-0.5 0.2-0.2 0.1-0.3 0.3-0.2 0.2-0.4 0.4-0.2 0.3-0.4 0.5-0.1 0.3-0.2 0.6-0.1 0.3-0.1 0.6-0.2 0.5-0.2 1-0.1 0.6-0.2 1.1 0 0.6 0 1.1-0.1 0.6 0 1.1 0 3.7 0.9 5.1 0.1 0.4 0.4 0.6 0.2 0.3 0.5 0.5 0.3 0.2 0.7 0.3 0.3 0.1 0.6 0.1 0.4 0 0.7-0.1 0.3-0.1 0.6-0.3 0.3-0.2 0.5-0.4 0.3-0.3 0.4-0.6 1-1.6 1-5.4 0-3.9-0.9-5.4-0.1-0.3-0.4-0.6-0.2-0.2-0.5-0.4-0.3-0.2-0.7-0.3-0.3-0.1-0.7-0.1z"></path><path id="Layer" class="s1" d="m78 61.3c-6.5 5.1-13.6 7-16.6 8-3.1-1.2-10.2-3-16.5-8.1h7.2q1.1 0.6 2.2 1.1 1.1 0.5 2.3 1 1.1 0.5 2.2 0.9 1.2 0.4 2.3 0.7l0.3 0.1 0.2-0.1q1.2-0.3 2.4-0.7 1.1-0.4 2.3-0.9 1.1-0.4 2.2-1 1.1-0.5 2.2-1z"></path><path id="Layer" class="s1" d="m90.4 18.5v14.4q0 1.3-0.1 2.6-0.1 1.4-0.2 2.7-0.2 1.3-0.4 2.7-0.2 1.3-0.5 2.6v-0.3h-4.1q0.3-1.3 0.6-2.6 0.2-1.3 0.4-2.5 0.1-1.3 0.2-2.6 0.1-1.3 0.1-2.6v-11.5l-11.7-4-10-3.3-3.2-1.1-24.9 8.4v11.5q0 1.3 0.1 2.6 0 1.3 0.2 2.5 0.1 1.3 0.4 2.6 0.2 1.3 0.5 2.6h-4.1q-0.3-1.3-0.5-2.6-0.2-1.3-0.3-2.6-0.2-1.3-0.2-2.6-0.1-1.2-0.1-2.5v-14.4l28.9-9.8z"></path><path id="Layer" class="s1" d="m50.5 72.6c-10.2-4.2-25-13.8-25-38.8v-12.7l4-1.4v14.1c0 26.6 18 33.8 27.1 36.8z"></path></svg>