<?xml version="1.0" encoding="UTF-8"?> <svg xmlns="http://www.w3.org/2000/svg" version="1.2" viewBox="0 0 1272 330" width="1272" height="330"><title>Cascade Electrical CMYK White logo-ai</title><style> .s0 { fill: #e5222f } .s1 { fill: #fefefe } </style><g id="Layer 1"><g id="&lt;Group&gt;"><g id="&lt;Group&gt;"><path id="&lt;Path&gt;" class="s0" d="m108.1 67.5h30.5v67.2h-30.5z"></path><path id="&lt;Path&gt;" class="s0" d="m258 67.5h30.5v67.2h-30.5z"></path><path id="&lt;Path&gt;" class="s0" d="m165 196.4h65.9l-0.2 35.3c-1.2 17-15.5 30.5-32.8 30.5-17.2 0-31.5-13.5-32.7-30.5h-0.2z"></path><path id="&lt;Compound Path&gt;" fill-rule="evenodd" class="s0" d="m393.9 165.4c0 54-21.6 104.3-60.9 141.6-8.7 8.4-18.3 16-28.4 22.6l-0.6 0.3h-211.5l-0.5-0.3c-10.2-6.6-19.8-14.2-28.5-22.6-39.2-37.3-60.8-87.6-60.8-141.6 0-54 21.6-104.3 60.8-141.6 8.7-8.4 18.3-15.9 28.5-22.5l0.5-0.4h211.5l0.6 0.4c10.1 6.5 19.7 14.1 28.4 22.5 39.3 37.3 60.9 87.6 60.9 141.6zm-98-137.9h-195.3c-44.7 31.8-71.4 83.3-71.4 137.9 0 54.7 26.7 106.2 71.4 137.9h195.3c44.7-31.7 71.4-83.2 71.4-137.9 0-54.6-26.7-106.1-71.4-137.9z"></path></g><g id="&lt;Group&gt;"><path id="&lt;Compound Path&gt;" class="s1" d="m545.4 98.9q-8.5 17.1-21.2 25.1-13 8.4-28.6 8.4-22.2 0-38-15.8-15.8-15.8-15.8-38 0-22.1 15.8-37.9 15.8-15.8 38-15.8 15.6 0 28.6 8.4 12.7 8 21.2 25l-20.4 8.8q-5.6-10.8-12.9-15.3-7.6-4.7-16.5-4.7-13.1 0-22.3 9.2-9.4 9.3-9.4 22.3 0 13.1 9.4 22.4 9.2 9.2 22.3 9.2 8.8 0 16.5-4.8 7.3-4.4 12.9-15.3z"></path><path id="&lt;Compound Path&gt;" fill-rule="evenodd" class="s1" d="m612.5 132.4q-22.1 0-37.9-15.8-15.8-15.8-15.8-37.9 0-22.2 15.8-38 15.8-15.8 37.9-15.8 22.3 0 31.6 9.3v-8h22.2v104.8h-22.2v-7.9q-9.3 9.3-31.6 9.3zm0-85.3q-13 0-22.3 9.3-9.2 9.2-9.2 22.3 0 13.1 9.2 22.3 9.2 9.2 22.3 9.2 13.1 0 22.4-9.2 9.2-9.2 9.2-22.3 0-13.1-9.2-22.3-9.3-9.3-22.4-9.3z"></path><path id="&lt;Compound Path&gt;" class="s1" d="m725.4 132.4q-13.1-0.1-23.7-6.3-13.1-7.7-18.4-25.9l21.2-6q2.9 9.8 8.8 13.1 5.3 2.8 12.2 2.9 0.9 0 1.9-0.1 1-0.1 2.1-0.3 2.8-0.4 5-1.4 5.6-2.7 6.1-9 0.2-2.7-1.7-4.7-3.7-4.4-13-5-23.2-1.5-33.6-12.1-4.4-4.3-6.2-9.8-1.5-4.3-1.5-9.1 0-15.8 12.3-25.4 10.8-8.4 26-8.4 18.1 0 30.2 12.9 6.7 7.2 10.6 17.2l-20.6 7.6-2.9-5.3q-1.3-2.4-3.1-4.3-5.8-5.9-14.3-5.9-1.7 0.1-2.9 0.2-2.8 0.4-5.6 1.5-7.6 2.9-7.6 9.9 0 3.7 5.6 6 5.5 2.2 15.1 2.9 10.3 0.6 18.1 4.6 6 3.2 10.3 7.9 7.8 9.2 6.8 21-1.1 15.2-12.9 23.8-10.1 7.5-24.2 7.5z"></path><path id="&lt;Compound Path&gt;" class="s1" d="m877.4 98.9q-8.6 17.1-21.3 25.1-13 8.4-28.6 8.4-22.1 0-38-15.8-15.8-15.8-15.8-38 0-22.1 15.8-37.9 15.9-15.8 38-15.8 15.6 0 28.6 8.4 12.7 8 21.3 25l-20.4 8.8q-5.7-10.8-13-15.3-7.6-4.7-16.5-4.7-13.1 0-22.3 9.2-9.3 9.3-9.3 22.3 0 13.1 9.3 22.4 9.2 9.2 22.3 9.2 8.8 0 16.5-4.8 7.3-4.4 13-15.3z"></path><path id="&lt;Compound Path&gt;" fill-rule="evenodd" class="s1" d="m944.4 132.4q-22.1 0-37.9-15.8-15.8-15.8-15.8-37.9 0-22.2 15.8-38 15.8-15.8 37.9-15.8 22.3 0 31.6 9.3v-8h22.2v104.8h-22.2v-7.9q-9.3 9.3-31.6 9.3zm0-85.3q-13 0-22.3 9.3-9.2 9.2-9.2 22.3 0 13.1 9.2 22.3 9.2 9.2 22.3 9.2 13.1 0 22.4-9.2 9.2-9.2 9.2-22.3 0-13.1-9.2-22.3-9.3-9.3-22.4-9.3z"></path><path id="&lt;Compound Path&gt;" fill-rule="evenodd" class="s1" d="m1067.5 132.5q-22.2 0-38-15.9-15.8-15.8-15.8-37.9 0-22.1 15.8-37.9 15.8-15.9 38-15.9 19.8-0.3 31.5 9.4v-57.1h22.2v153.8h-22.2v-7.9q-9.2 9.4-31.5 9.4zm0-85.3q-13.1 0-22.4 9.2-9.2 9.2-9.2 22.3 0 13.1 9.2 22.3 9.3 9.2 22.4 9.2 13.1 0 22.3-9.2 9.2-9.2 9.2-22.3 0-13.1-9.2-22.3-9.2-9.2-22.3-9.2z"></path><path id="&lt;Compound Path&gt;" fill-rule="evenodd" class="s1" d="m1187.4 24.9q22.1 0 37.9 15.8 15.7 15.8 15.7 37.9l-0.2 6.8h-84.3q1.2 7.8 9.5 16.5 9 8.3 21.4 8.3 8.8 0 16.5-4.8 7.3-4.4 12.9-15.3l20.4 8.8q-8.5 17.1-21.2 25.1-13.1 8.4-28.6 8.4-22.2 0-37.9-15.8-15.9-15.8-15.9-38 0-22.1 15.9-37.9 15.7-15.8 37.9-15.8zm27.7 38.4q-2.4-4.8-9.3-10.3-8.3-5.9-18.4-5.9-10.3 0-18.5 5.9-6.7 5.6-9.2 10.3z"></path><path id="&lt;Compound Path&gt;" fill-rule="evenodd" class="s1" d="m495.6 196.8q22.1 0 37.9 15.8 15.7 15.8 15.7 37.9l-0.1 6.9h-84.4q1.2 7.7 9.5 16.4 9 8.3 21.4 8.3 8.8 0 16.5-4.8 7.3-4.4 12.9-15.3l20.4 8.8q-8.5 17.1-21.2 25.1-13 8.4-28.6 8.4-22.2 0-37.9-15.8-15.9-15.8-15.9-38 0-22.1 15.9-37.9 15.7-15.8 37.9-15.8zm27.7 38.4q-2.4-4.8-9.3-10.2-8.3-6-18.4-6-10.3 0-18.5 6-6.7 5.5-9.2 10.2z"></path><path id="&lt;Compound Path&gt;" class="s1" d="m565.8 154h22.2v148.9h-22.2z"></path><path id="&lt;Compound Path&gt;" fill-rule="evenodd" class="s1" d="m657.4 196.8q22.1 0 37.9 15.8 15.7 15.8 15.7 37.9l-0.2 6.9h-84.3q1.2 7.7 9.5 16.4 9 8.3 21.4 8.3 8.8 0 16.5-4.8 7.3-4.4 12.9-15.3l20.4 8.8q-8.5 17.1-21.3 25.1-13 8.4-28.5 8.4-22.2 0-38-15.8-15.8-15.8-15.8-38 0-22.1 15.8-37.9 15.8-15.8 38-15.8zm27.7 38.4q-2.4-4.8-9.3-10.2-8.3-6-18.4-6-10.3 0-18.5 6-6.7 5.5-9.2 10.2z"></path><path id="&lt;Compound Path&gt;" class="s1" d="m826.6 270.8q-8.5 17.1-21.3 25.1-13 8.4-28.5 8.4-22.2 0-38-15.8-15.8-15.8-15.8-38 0-22.1 15.8-37.9 15.8-15.8 38-15.8 15.5 0 28.5 8.4 12.8 8 21.3 25l-20.4 8.8q-5.6-10.8-12.9-15.3-7.6-4.7-16.5-4.7-13.2 0-22.4 9.2-9.3 9.3-9.3 22.3 0 13.1 9.3 22.4 9.2 9.2 22.4 9.2 8.8 0 16.5-4.8 7.3-4.4 12.9-15.3z"></path><path id="&lt;Compound Path&gt;" class="s1" d="m844.1 180.6h22.1v17.5h17.1v22.1h-17.1v47.2q0 5.6 3.8 9.5 3.9 3.9 13.3 3.9v22.1q-18.4 0-28.8-10.4-10.4-10.4-10.4-25.1z"></path><path id="&lt;Compound Path&gt;" class="s1" d="m947.1 196.8v22.2h-5.6q-9 0-15.3 6.3-6.4 6.4-6.4 15.4v62.2h-22.1v-104.8h22.1v3.8q10.2-4.8 21.7-5.1z"></path><path id="&lt;Compound Path&gt;" class="s1" d="m962.2 185.7q-4-4-4-9.5 0-5.6 4-9.6 4-4 9.5-3.9 5.6-0.1 9.6 3.9 4 4 4 9.6 0 5.5-4 9.5-4 4-9.6 4-5.5 0-9.5-4zm-1.5 12.4h22.1v104.8h-22.1z"></path><path id="&lt;Compound Path&gt;" class="s1" d="m1102.9 270.8q-8.6 17.1-21.3 25.1-13 8.4-28.6 8.4-22.1 0-38-15.8-15.8-15.8-15.8-38 0-22.1 15.8-37.9 15.9-15.8 38-15.8 15.6 0 28.6 8.4 12.7 8 21.3 25l-20.5 8.8q-5.6-10.8-12.9-15.3-7.6-4.7-16.5-4.7-13.1 0-22.3 9.2-9.3 9.3-9.3 22.3 0 13.1 9.3 22.4 9.2 9.2 22.3 9.2 8.8 0 16.5-4.8 7.3-4.4 12.9-15.3z"></path><path id="&lt;Compound Path&gt;" fill-rule="evenodd" class="s1" d="m1170.9 304.3q-22.2 0-37.9-15.8-15.8-15.8-15.8-37.9 0-22.2 15.8-38 15.7-15.8 37.9-15.8 22.3 0 31.6 9.4v-8.1h22.1v104.8h-22.1v-7.9q-9.3 9.3-31.6 9.3zm0-85.3q-13 0-22.3 9.3-9.3 9.2-9.3 22.3 0 13.1 9.3 22.3 9.2 9.2 22.3 9.2 13.1 0 22.4-9.2 9.2-9.2 9.2-22.3 0-13.1-9.2-22.3-9.3-9.3-22.4-9.3z"></path><path id="&lt;Compound Path&gt;" class="s1" d="m1248.1 154h22.2v148.9h-22.2z"></path></g></g></g></svg> 