<svg xmlns="http://www.w3.org/2000/svg" xmlns:xlink="http://www.w3.org/1999/xlink" id="Layer_3" x="0px" y="0px" viewBox="0 0 24 24" style="enable-background:new 0 0 24 24;" xml:space="preserve"> <style type="text/css"> .st0{fill:none;stroke:#E5222F;stroke-width:1.5;stroke-linecap:round;stroke-linejoin:round;} </style> <path class="st0" d="M4,4h10c0.6,0,1,0.4,1,1v15l0,0H4c-0.6,0-1-0.4-1-1V5C3,4.4,3.4,4,4,4z"></path> <path class="st0" d="M15,8h5c0.6,0,1,0.4,1,1v10c0,0.6-0.4,1-1,1h-5l0,0V8L15,8z"></path> <path class="st0" d="M7,7.9C6.9,7.9,6.9,7.9,6.9,8S6.9,8.1,7,8.1S7.1,8.1,7.1,8S7.1,7.9,7,7.9"></path> <path class="st0" d="M11,7.9c-0.1,0-0.1,0.1-0.1,0.1s0.1,0.1,0.1,0.1s0.1-0.1,0.1-0.1S11.1,7.9,11,7.9"></path> <path class="st0" d="M7,11.9c-0.1,0-0.1,0.1-0.1,0.1s0.1,0.1,0.1,0.1s0.1-0.1,0.1-0.1S7.1,11.9,7,11.9"></path> <path class="st0" d="M11,11.9c-0.1,0-0.1,0.1-0.1,0.1s0.1,0.1,0.1,0.1s0.1-0.1,0.1-0.1S11.1,11.9,11,11.9"></path> <path class="st0" d="M7,15.9c-0.1,0-0.1,0.1-0.1,0.1c0,0.1,0.1,0.1,0.1,0.1s0.1-0.1,0.1-0.1C7.1,15.9,7.1,15.9,7,15.9"></path> <path class="st0" d="M11,15.9c-0.1,0-0.1,0.1-0.1,0.1c0,0.1,0.1,0.1,0.1,0.1s0.1-0.1,0.1-0.1C11.1,15.9,11.1,15.9,11,15.9"></path> <path class="st0" d="M18,11.9c-0.1,0-0.1,0.1-0.1,0.1s0.1,0.1,0.1,0.1s0.1-0.1,0.1-0.1S18.1,11.9,18,11.9"></path> <path class="st0" d="M18,15.9c-0.1,0-0.1,0.1-0.1,0.1c0,0.1,0.1,0.1,0.1,0.1s0.1-0.1,0.1-0.1C18.1,15.9,18.1,15.9,18,15.9"></path> </svg>