<svg xmlns="http://www.w3.org/2000/svg" xmlns:xlink="http://www.w3.org/1999/xlink" id="Layer_1" x="0px" y="0px" viewBox="0 0 24 24" style="enable-background:new 0 0 24 24;" xml:space="preserve"> <style type="text/css"> .st0{fill:none;stroke:#E5222F;stroke-width:1.5;stroke-linecap:round;stroke-linejoin:round;} </style> <g id="Layer_2_00000174569167922449006680000011694313332453398180_"> <path class="st0" d="M7,3h10c2.2,0,4,1.8,4,4v10c0,2.2-1.8,4-4,4H7c-2.2,0-4-1.8-4-4V7C3,4.8,4.8,3,7,3z"></path> <path class="st0" d="M17.5,6.5C17.5,6.5,17.5,6.5,17.5,6.5c0.1,0,0.1,0,0.1,0S17.5,6.4,17.5,6.5L17.5,6.5L17.5,6.5 C17.5,6.4,17.5,6.5,17.5,6.5C17.5,6.5,17.5,6.5,17.5,6.5L17.5,6.5"></path> <path id="a1080z" class="st0" d="M12.8,10.7h1.7c0.6,0,1.1,0.5,1.1,1.1c0,0.2-0.1,0.4-0.2,0.6l-2.1,3.2c-0.3,0.5-1,0.6-1.5,0.3 c-0.3-0.2-0.5-0.5-0.5-0.9v-1.6H9.6c-0.6,0-1.1-0.5-1.1-1.1c0-0.2,0.1-0.4,0.2-0.6l2.1-3.2c0.3-0.5,1-0.6,1.5-0.3 c0.3,0.2,0.5,0.5,0.5,0.9V10.7z"></path> <path class="st0" d="M6.6,17.5C6.6,17.5,6.5,17.4,6.6,17.5C6.5,17.4,6.5,17.5,6.6,17.5C6.4,17.5,6.5,17.5,6.6,17.5L6.6,17.5 L6.6,17.5C6.5,17.6,6.5,17.5,6.6,17.5C6.6,17.5,6.6,17.5,6.6,17.5L6.6,17.5"></path> <path class="st0" d="M6.5,6.6C6.5,6.6,6.5,6.5,6.5,6.6C6.5,6.5,6.5,6.5,6.5,6.6C6.5,6.5,6.4,6.5,6.5,6.6L6.5,6.6 C6.4,6.5,6.5,6.5,6.5,6.6C6.5,6.6,6.5,6.6,6.5,6.6L6.5,6.6"></path> <path class="st0" d="M17.5,17.5C17.5,17.5,17.4,17.5,17.5,17.5c-0.1,0.1,0,0.1,0,0.1S17.5,17.5,17.5,17.5L17.5,17.5L17.5,17.5 C17.6,17.5,17.5,17.5,17.5,17.5C17.5,17.5,17.5,17.5,17.5,17.5L17.5,17.5"></path> </g> </svg>